<svg width="260" height="265" viewBox="0 0 260 265" fill="none" xmlns="http://www.w3.org/2000/svg">
<path d="M106.431 141.645C97.0507 174.848 84.377 203.562 71.5765 223.137C65.1626 232.945 58.8444 240.262 53.0553 244.732C47.1909 249.262 42.5588 250.375 39.0997 249.398C35.6405 248.42 32.2757 245.048 29.6482 238.12C27.0545 231.28 25.4987 221.739 25.1654 210.025C24.5001 186.646 28.7251 155.545 38.1057 122.341C47.4864 89.1376 60.16 60.424 72.9605 40.849C79.3744 31.0408 85.6927 23.7244 91.4817 19.2535C97.3461 14.7244 101.978 13.6111 105.437 14.5884C108.896 15.5657 112.261 18.9382 114.889 25.8664C117.483 32.7056 119.038 42.2465 119.372 53.961C120.037 77.3402 115.812 108.441 106.431 141.645Z" stroke="white" stroke-width="8"/>
<path d="M125.649 205.708C91.3654 201.824 60.9794 193.963 39.5912 184.499C28.8744 179.757 20.6321 174.705 15.2834 169.716C9.86509 164.662 8.017 160.271 8.42168 156.699C8.82635 153.127 11.61 149.261 18.0217 145.547C24.3511 141.881 33.5146 138.802 45.0207 136.578C67.9842 132.138 99.3586 131.275 133.643 135.16C167.927 139.044 198.313 146.905 219.701 156.369C230.418 161.111 238.66 166.162 244.009 171.152C249.427 176.206 251.275 180.597 250.871 184.169C250.466 187.74 247.682 191.607 241.27 195.32C234.941 198.987 225.778 202.066 214.271 204.29C191.308 208.73 159.934 209.593 125.649 205.708Z" stroke="white" stroke-width="8"/>
<path d="M222.733 124.764C230.919 158.118 234.029 189.205 232.529 212.444C231.778 224.088 229.883 233.528 227.049 240.244C224.179 247.045 220.697 250.293 217.198 251.152C213.699 252.01 209.109 250.744 203.417 246.044C197.795 241.403 191.745 233.913 185.689 223.94C173.601 204.035 161.965 175.041 153.78 141.687C145.594 108.333 142.484 77.2463 143.984 54.0072C144.735 42.363 146.63 32.9236 149.464 26.2073C152.334 19.4062 155.816 16.1583 159.315 15.2996C162.814 14.4409 167.404 15.7078 173.096 20.4074C178.718 25.0484 184.768 32.5381 190.824 42.5115C202.912 62.416 214.548 91.4107 222.733 124.764Z" stroke="white" stroke-width="8"/>
</svg>
